# xmcd
#
# Track frame offsets:
#	150
#	17001
#	31479
#	51075
#	71128
#	86807
#	102141
#	120746
#	137829
#	155979
#	172830
#	187308
#	206904
#	226957
#	242636
#	257970
#	276575
#	293658
#
# Disc length: 4157
#
# Revision: 1
# Processed by: cddbd v1.5.2PL0 Copyright (c) Steve Scherf et al.
# Submitted via: kJams Pro (development) 1.0patch45.10
#
DISCID=17103b12
DTITLE=Various Artist - NSC 3032
DYEAR=1997
DGENRE=Country
TTITLE0=Faith Hill - Cry
TTITLE1=Toby Keith - Who's Your Daddy
TTITLE2=Brad Paisley - I Wish You'd Stay
TTITLE3=Kellie Coffey - At The End Of The Day
TTITLE4=Brooks and Dunn - Every River
TTITLE5=Terri Clark - I Just Wanna To Be Mad
TTITLE6=Steve Azar - Waitin' On Joe
TTITLE7=Jennifer Hanson - Beautiful Goodbye
TTITLE8=John Michael Montgomery - Til' Nothing Comes Between Us
TTITLE9=Faith Hill - Vocals - Cry
TTITLE10=Toby Keith - Vocals - Who's Your Daddy
TTITLE11=Brad Paisley - Vocals - I Wish You'd Stay
TTITLE12=Kellie Coffey - Vocals - At The End Of The Day
TTITLE13=Brooks and Dunn - Vocals - Every River
TTITLE14=Terri Clark - Vocals - I Just Wanna To Be Mad
TTITLE15=Steve Azar - Vocals - Waitin' On Joe
TTITLE16=Jennifer Hanson - Vocals - Beautiful Goodbye
TTITLE17=John Michael Montgomery - Vocals - Til' Nothing Comes Between Us
EXTD=
EXTT0=
EXTT1=
EXTT2=
EXTT3=
EXTT4=
EXTT5=
EXTT6=
EXTT7=
EXTT8=
EXTT9=
EXTT10=
EXTT11=
EXTT12=
EXTT13=
EXTT14=
EXTT15=
EXTT16=
EXTT17=
PLAYORDER=
